<svg data-v-423bf9ae="" xmlns="http://www.w3.org/2000/svg" viewBox="0 0 150.69069505962327 60" class="font"><!----><!----><defs data-v-423bf9ae=""><linearGradient data-v-423bf9ae="" gradientTransform="rotate(25)" id="44d42e1e-0521-41ea-8dec-92090750b79b" x1="0%" y1="0%" x2="100%" y2="0%"><stop data-v-423bf9ae="" offset="0%" style="stop-color: rgb(33, 105, 15); stop-opacity: 1;"></stop><stop data-v-423bf9ae="" offset="100%" style="stop-color: rgb(136, 200, 72); stop-opacity: 1;"></stop></linearGradient></defs><g data-v-423bf9ae="" id="2752f352-9694-4d15-992f-032881f38a21" fill="url(#44d42e1e-0521-41ea-8dec-92090750b79b)" transform="matrix(6.006006143610182,0,0,6.006006143610182,-1.0210203759117604,-2.582582029059587)"><path d="M10.30 0.43L6.08 0.43L6.08 0.67C8.01 0.66 7.98 2.77 7.98 2.77L7.98 6.93C7.98 8.69 6.73 9.58 5.67 9.58C4.34 9.58 3.32 8.60 3.32 6.94L3.32 1.90C3.32 0.90 4.02 0.67 4.62 0.67L4.62 0.43L0.17 0.43L0.17 0.67C0.78 0.67 1.29 1.05 1.29 1.90L1.29 6.85C1.29 9.13 2.86 10.42 4.76 10.42C5.99 10.42 8.22 9.93 8.22 6.93L8.22 2.77C8.22 2.77 8.19 0.66 10.30 0.67ZM10.79 0.43L10.79 3.25L11.03 3.25C11.14 0.74 14.11 0.67 14.11 0.67L14.38 0.67L14.38 8.60C14.38 9.55 13.78 10.05 13.19 10.05L13.19 10.29L17.60 10.29L17.60 10.05C17.01 10.05 16.41 9.55 16.41 8.60L16.41 0.67L16.67 0.67C16.67 0.67 19.66 0.74 19.77 3.25L20.01 3.25L20.01 0.43L10.79 0.43ZM20.85 0.43L20.85 0.67C21.46 0.67 22.04 1.05 22.04 1.92L22.04 8.60C22.04 9.55 21.45 10.05 20.85 10.05L20.85 10.29L25.26 10.29L25.26 10.05C24.67 10.05 24.07 9.55 24.07 8.60L24.07 1.92C24.07 1.05 24.65 0.67 25.26 0.67L25.26 0.43Z"></path></g><!----><!----></svg>